#!OML:ASF G:\JayActor3\Patient Classification 1\Patient 1\Session 6\male.ASF
:FULLY-SPECIFIED
:DEGREES
1695
root -3.53206 15.7505 8.1403 -187.24 -50.0205 203.285
lowerback 29.0428 -0.697285 -4.59122
upperback 6.29297 -3.43566 -2.4799
thorax -8.84197 -1.91364 1.13942
lowerneck 14.3645 4.82316 1.46561
upperneck -25.1241 7.87366 4.54329
head -10.5787 2.60696 0.384822
rclavicle -3.97569e-014 9.85972e-014
rhumerus -33.1882 16.0404 -89.8791
rradius 125.332
rwrist 11.5498
rhand 14.5059 -19.8549
rfingers 7.12502
rthumb 39.3863 -45.2632
lclavicle -3.97569e-014 9.85972e-014
lhumerus -35.9905 -8.69366 81.9417
lradius 126.907
lwrist 5.1927
lhand 0.735974 39.5172
lfingers 7.12502
lthumb 26.2951 67.7147
rfemur -49.5339 -5.18855 27.4917
rtibia 79.9196
rfoot -13.863 -6.69943
rtoes -18.2168
lfemur -50.7924 34.1467 -22.6014
ltibia 54.8831
lfoot -25.0282 12.5977
ltoes 8.80079
1696
root -3.52267 15.7709 8.16684 -186.798 -49.5008 202.867
lowerback 28.9877 -0.680189 -4.5916
upperback 6.31467 -3.42313 -2.52059
thorax -8.79381 -1.91357 1.08775
lowerneck 14.3322 4.80641 1.57753
upperneck -25.1137 7.84935 4.46167
head -10.5594 2.59397 0.34207
rclavicle -1.27222e-014 -4.45278e-014
rhumerus -33.2057 15.9854 -89.8857
rradius 125.357
rwrist 11.532
rhand 14.5507 -19.8908
rfingers 7.12502
rthumb 39.4285 -45.2867
lclavicle -1.27222e-014 -4.45278e-014
lhumerus -35.9284 -8.76235 81.9176
lradius 126.877
lwrist 5.20398
lhand 0.702407 39.4304
lfingers 7.12502
lthumb 26.263 67.6327
rfemur -49.3266 -5.2026 27.6561
rtibia 80.1894
rfoot -13.8404 -6.77678
rtoes -17.9618
lfemur -50.6974 34.4853 -22.8772
ltibia 54.4341
lfoot -24.8851 12.7807
ltoes 8.73788
1697
root -3.51464 15.793 8.19257 -186.356 -48.964 202.431
lowerback 28.9225 -0.647518 -4.59261
upperback 6.34384 -3.3941 -2.58148
thorax -8.73431 -1.90713 1.00772
lowerneck 14.3076 4.77061 1.73896
upperneck -25.0993 7.80889 4.37603
head -10.5379 2.56912 0.291792
rclavicle -7.95139e-015 -1.90833e-014
rhumerus -33.2254 15.8852 -89.9052
rradius 125.382
rwrist 11.5131
rhand 14.6483 -19.9441
rfingers 7.12502
rthumb 39.5205 -45.313
lclavicle -7.95139e-015 -1.90833e-014
lhumerus -35.8591 -8.87557 81.8789
lradius 126.824
lwrist 5.22537
lhand 0.635602 39.2646
lfingers 7.12502
lthumb 26.199 67.4765
rfemur -49.0718 -5.19903 27.7846
rtibia 80.4089
rfoot -13.7898 -6.87965
rtoes -17.853
lfemur -50.5685 34.8594 -23.1676
ltibia 53.9627
lfoot -24.7384 12.9515
ltoes 8.65569
1698
root -3.50831 15.8165 8.21795 -185.925 -48.4217 202
lowerback 28.8434 -0.61197 -4.5669
upperback 6.3811 -3.35555 -2.65966
thorax -8.66178 -1.89791 0.889327
lowerneck 14.2767 4.71264 1.94743
upperneck -25.0776 7.74616 4.28751
head -10.5103 2.53 0.235984
rclavicle 5.08889e-014 1.01778e-013
rhumerus -33.2399 15.7419 -89.9354
rradius 125.403
rwrist 11.4908
rhand 14.7493 -20.0051
rfingers 7.12502
rthumb 39.6156 -45.346
lclavicle 5.08889e-014 1.01778e-013
lhumerus -35.7779 -9.03698 81.829
lradius 126.774
lwrist 5.22891
lhand 0.586996 39.1914
lfingers 7.12502
lthumb 26.1525 67.4102
rfemur -48.7764 -5.18994 27.8874
rtibia 80.5801
rfoot -13.7129 -6.99245
rtoes -17.7832
lfemur -50.4189 35.2455 -23.461
ltibia 53.4786
lfoot -24.6014 13.1103
ltoes 8.60823
1699
root -3.50072 15.8391 8.2435 -185.526 -47.8778 201.624
lowerback 28.773 -0.586394 -4.52345
upperback 6.40557 -3.3219 -2.7233
thorax -8.60767 -1.88956 0.779402
lowerneck 14.2602 4.65464 2.13819
upperneck -25.0543 7.68265 4.20921
head -10.4864 2.49102 0.186388
rclavicle 3.18055e-014 3.81667e-014
rhumerus -33.2584 15.6153 -89.9626
rradius 125.421
rwrist 11.4697
rhand 14.8346 -20.0509
rfingers 7.12502
rthumb 39.696 -45.3679
lclavicle 3.18055e-014 3.81667e-014
lhumerus -35.713 -9.18959 81.7876
lradius 126.742
lwrist 5.20901
lhand 0.563131 39.2397
lfingers 7.12502
lthumb 26.1296 67.4619
rfemur -48.4929 -5.15496 28.0088
rtibia 80.7211
rfoot -13.6268 -7.12353
rtoes -17.6052
lfemur -50.3099 35.6221 -23.7351
ltibia 52.9998
lfoot -24.4536 13.2769
ltoes 8.60663
1700
root -3.49216 15.8602 8.2694 -185.151 -47.339 201.294
lowerback 28.7106 -0.582363 -4.48109
upperback 6.41858 -3.31129 -2.75891
thorax -8.56755 -1.89006 0.709852
lowerneck 14.2565 4.61344 2.26131
upperneck -25.0338 7.63234 4.14793
head -10.4697 2.46256 0.151757
rclavicle 3.18055e-014 -2.8625e-014
rhumerus -33.2716 15.5574 -89.9709
rradius 125.436
rwrist 11.4402
rhand 14.9143 -20.117
rfingers 7.12502
rthumb 39.771 -45.4117
lclavicle 3.18055e-014 -2.8625e-014
lhumerus -35.6735 -9.27991 81.7651
lradius 126.738
lwrist 5.1504
lhand 0.584881 39.429
lfingers 7.12502
lthumb 26.1505 67.648
rfemur -48.2231 -5.10435 28.1391
rtibia 80.8407
rfoot -13.5301 -7.26386
rtoes -17.325
lfemur -50.2361 35.98 -23.9946
ltibia 52.5318
lfoot -24.324 13.429
ltoes 8.74389
1701
root -3.48332 15.88 8.29601 -184.806 -46.8172 201.003
lowerback 28.668 -0.608839 -4.44171
upperback 6.42109 -3.33585 -2.76111
thorax -8.54533 -1.90496 0.692229
lowerneck 14.2672 4.59808 2.29067
upperneck -25.0184 7.6032 4.10749
head -10.4626 2.45034 0.136604
rclavicle 5.08889e-014 1.01778e-013
rhumerus -33.2753 15.587 -89.9549
rradius 125.442
rwrist 11.4096
rhand 14.9733 -20.1659
rfingers 7.12502
rthumb 39.8265 -45.444
lclavicle 5.08889e-014 1.01778e-013
lhumerus -35.6711 -9.27944 81.7727
lradius 126.749
lwrist 5.07986
lhand 0.627445 39.6166
lfingers 7.12502
lthumb 26.1912 67.8296
rfemur -47.9538 -5.05877 28.2679
rtibia 80.9421
rfoot -13.436 -7.3965
rtoes -16.8917
lfemur -50.1796 36.3068 -24.2382
ltibia 52.0743
lfoot -24.1995 13.5894
ltoes 8.90928
1702
root -3.47402 15.899 8.32304 -184.478 -46.3044 200.742
lowerback 28.6347 -0.654772 -4.41183
upperback 6.41807 -3.38435 -2.7382
thorax -8.53095 -1.9297 0.716618
lowerneck 14.2873 4.604 2.25907
upperneck -25.0125 7.59355 4.07754
head -10.4637 2.45126 0.132292
rclavicle -5.56597e-014 7.95139e-014
rhumerus -33.2588 15.6714 -89.9268
rradius 125.437
rwrist 11.3845
rhand 15.0366 -20.2336
rfingers 7.12502
rthumb 39.8861 -45.4939
lclavicle -5.56597e-014 7.95139e-014
lhumerus -35.6948 -9.21003 81.7944
lradius 126.761
lwrist 5.02775
lhand 0.638944 39.6686
lfingers 7.12502
lthumb 26.2022 67.8799
rfemur -47.6837 -5.01072 28.3925
rtibia 81.0234
rfoot -13.3464 -7.53443
rtoes -16.4292
lfemur -50.1408 36.6154 -24.4735
ltibia 51.6229
lfoot -24.0731 13.7608
ltoes 9.05832
1703
root -3.4642 15.9177 8.35032 -184.146 -45.8012 200.471
lowerback 28.6165 -0.715124 -4.42644
upperback 6.41025 -3.46129 -2.68956
thorax -8.52398 -1.96596 0.805403
lowerneck 14.3094 4.63868 2.13976
upperneck -25.011 7.60897 4.06621
head -10.4712 2.46994 0.145509
rclavicle -8.11041e-014 -1.27222e-014
rhumerus -33.2176 15.821 -89.8776
rradius 125.417
rwrist 11.3637
rhand 15.1038 -20.2952
rfingers 7.12502
rthumb 39.9494 -45.5365
lclavicle -8.11041e-014 -1.27222e-014
lhumerus -35.7489 -9.05416 81.8392
lradius 126.769
lwrist 5.00115
lhand 0.619103 39.5681
lfingers 7.12502
lthumb 26.1832 67.7823
rfemur -47.4099 -4.97217 28.4842
rtibia 81.086
rfoot -13.2677 -7.66295
rtoes -15.9797
lfemur -50.105 36.9118 -24.726
ltibia 51.1713
lfoot -23.9445 13.9375
ltoes 9.16016
1704
root -3.45408 15.9363 8.37765 -183.801 -45.2995 200.184
lowerback 28.6013 -0.761817 -4.43146
upperback 6.40426 -3.52163 -2.66108
thorax -8.5189 -1.99525 0.86058
lowerneck 14.3239 4.65239 2.08318
upperneck -25.0129 7.60663 4.04758
head -10.4757 2.47461 0.148496
rclavicle -5.08889e-014 4.13472e-014
rhumerus -33.1762 15.8873 -89.8485
rradius 125.395
rwrist 11.3627
rhand 15.1736 -20.3458
rfingers 7.12502
rthumb 40.015 -45.5673
lclavicle -5.08889e-014 4.13472e-014
lhumerus -35.7987 -8.96533 81.8673
lradius 126.769
lwrist 5.02506
lhand 0.55704 39.3571
lfingers 7.12502
lthumb 26.1238 67.5801
rfemur -47.1324 -4.93986 28.5445
rtibia 81.1255
rfoot -13.1934 -7.80151
rtoes -15.6716
lfemur -50.0749 37.2057 -24.9993
ltibia 50.7214
lfoot -23.8097 14.1175
ltoes 9.22202
1705
root -3.44371 15.955 8.40489 -183.46 -44.782 199.891
lowerback 28.597 -0.792161 -4.43647
upperback 6.4 -3.56422 -2.64246
thorax -8.51852 -2.01672 0.899078
lowerneck 14.3305 4.65696 2.05449
upperneck -25.0149 7.59747 4.03083
head -10.4777 2.47293 0.148741
rclavicle -5.56597e-014 1.11319e-013
rhumerus -33.1372 15.9023 -89.8273
rradius 125.375
rwrist 11.3749
rhand 15.2375 -20.3762
rfingers 7.12502
rthumb 40.0752 -45.5795
lclavicle -5.56597e-014 1.11319e-013
lhumerus -35.8469 -8.91447 81.8872
lradius 126.767
lwrist 5.08435
lhand 0.487342 39.0991
lfingers 7.12502
lthumb 26.0571 67.3319
rfemur -46.8416 -4.90229 28.5845
rtibia 81.1355
rfoot -13.1149 -7.9544
rtoes -15.5107
lfemur -50.0424 37.5137 -25.2773
ltibia 50.274
lfoot -23.6736 14.2953
ltoes 9.28603
1706
root -3.43298 15.9729 8.43267 -183.116 -44.2708 199.599
lowerback 28.5937 -0.822866 -4.42722
upperback 6.39594 -3.60416 -2.63083
thorax -8.51985 -2.0373 0.920771
lowerneck 14.3262 4.65644 2.04553
upperneck -25.0129 7.58462 4.01393
head -10.4753 2.46778 0.146514
rclavicle 4.77083e-015 1.27222e-014
rhumerus -33.103 15.8891 -89.8077
rradius 125.361
rwrist 11.3876
rhand 15.2783 -20.3977
rfingers 7.12502
rthumb 40.1136 -45.5894
lclavicle 4.77083e-015 1.27222e-014
lhumerus -35.8951 -8.88921 81.9076
lradius 126.779
lwrist 5.14327
lhand 0.455709 38.9435
lfingers 7.12502
lthumb 26.0268 67.1808
rfemur -46.5566 -4.87908 28.6078
rtibia 81.1196
rfoot -13.0443 -8.10175
rtoes -15.3529
lfemur -50.0313 37.8097 -25.5686
ltibia 49.838
lfoot -23.5293 14.4787
ltoes 9.32919
1707
root -3.42393 15.9912 8.46 -182.793 -43.7296 199.315
lowerback 28.5878 -0.842132 -4.40919
upperback 6.39922 -3.62834 -2.62171
thorax -8.51295 -2.05166 0.929033
lowerneck 14.315 4.6571 2.04361
upperneck -25.0065 7.57457 3.99738
head -10.4698 2.4634 0.143092
rclavicle -2.22639e-014 3.18055e-014
rhumerus -33.0765 15.8684 -89.7822
rradius 125.359
rwrist 11.3911
rhand 15.2991 -20.4036
rfingers 7.12502
rthumb 40.1331 -45.5894
lclavicle -2.22639e-014 3.18055e-014
lhumerus -35.947 -8.87603 81.9352
lradius 126.802
lwrist 5.19597
lhand 0.450691 38.8886
lfingers 7.12502
lthumb 26.022 67.1266
rfemur -46.234 -4.84653 28.6164
rtibia 81.0633
rfoot -12.9764 -8.24373
rtoes -15.162
lfemur -50.0045 38.132 -25.8433
ltibia 49.4146
lfoot -23.3885 14.6733
ltoes 9.35498
1708
root -3.41402 16.008 8.48728 -182.477 -43.1822 199.062
lowerback 28.5667 -0.85976 -4.37639
upperback 6.39852 -3.64321 -2.60473
thorax -8.50365 -2.0614 0.933875
lowerneck 14.2973 4.65763 2.04878
upperneck -24.9961 7.56516 3.97985
head -10.4613 2.45897 0.138269
rclavicle -4.77083e-014 1.39944e-013
rhumerus -33.0582 15.8441 -89.749
rradius 125.366
rwrist 11.3913
rhand 15.2961 -20.4154
rfingers 7.12502
rthumb 40.1303 -45.602
lclavicle -4.77083e-014 1.39944e-013
lhumerus -36.0038 -8.87888 81.9691
lradius 126.826
lwrist 5.23156
lhand 0.441729 38.8929
lfingers 7.12502
lthumb 26.0134 67.1322
rfemur -45.9319 -4.80405 28.6414
rtibia 80.9803
rfoot -12.8905 -8.41904
rtoes -14.9639
lfemur -50.031 38.4561 -26.1153
ltibia 49.0144
lfoot -23.2767 14.8322
ltoes 9.57115
